<?xml version="1.0" encoding="UTF-8"?><svg id="Artwork" xmlns="http://www.w3.org/2000/svg" viewBox="0 0 2563 1000"><defs><style>.cls-1{fill:#fff;}</style></defs><path class="cls-1" d="m1475.33,230.53v57.75h-257.05v174.72h208.25v57.75h-208.25v189.25h257.05v57.74h-338.26V230.53h338.26Z"/><polygon class="cls-1" points="2447.88 230.53 2317.4 488.85 2179.51 230.53 2067.75 230.53 2067.75 767.72 2148.97 767.72 2148.97 315.47 2319.09 631.9 2481.79 315.47 2481.79 767.72 2563 767.72 2563 230.53 2447.88 230.53"/><path class="cls-1" d="m1657.44,469.84h101.92c77.33,0,118.18-36.54,118.18-94.61,0-45.35-43.23-87.11-110.65-87.11h-109.45v181.71Zm0,45.19v252.69h-81.69V230.53l208.35.37c105.06-.37,175.09,56.25,175.09,138.96,0,93.13-64.08,139.7-159.44,145.66,68.92,57,127.78,144.17,187.01,252.21h-103.19c-67.62-125.45-134.44-252.66-225.67-252.66l-.45-.03Z"/><path class="cls-1" d="m634.02,526.35c.6-3.06,1.11-6.15,1.51-9.28l358.96,57.1-1.48,9.28-358.99-57.11Zm340.09,132.6l3.07-9.45-345.81-112.16c-.92,3.2-1.95,6.35-3.09,9.44l345.84,112.17Zm-35.97,67.34c2.5-2.63,4.95-5.31,7.36-8.02l-321.21-161.89c-1.46,3.18-3.05,6.3-4.75,9.34l318.59,160.57Zm-59.21,49.16c3.29-2.14,6.54-4.34,9.75-6.59l-274.22-194.76c-2.02,3.07-4.16,6.06-6.42,8.96l270.88,192.4Zm-284.93-177.01l218.22,210.25c4-1.45,7.96-2.99,11.89-4.59l-222.04-213.92c-2.57,2.87-5.27,5.63-8.08,8.27Zm148.26,227.18c4.59-.59,9.15-1.29,13.68-2.06l-168.47-219.34c-3.11,2.57-6.34,4.99-9.67,7.27l164.47,214.13Zm-69.01,1.55c4.94.4,9.92.69,14.92.87l-117.21-212.16c-3.6,2.16-7.32,4.17-11.13,6l113.42,205.29Zm-64.37-11.79c5.13,1.48,10.31,2.84,15.54,4.08l-71.49-194.52c-4.04,1.67-8.19,3.14-12.42,4.41l68.37,186.03Zm-57.08-22.51c5.08,2.58,10.23,5.02,15.45,7.34l-33.71-168.95c-4.41,1.07-8.91,1.93-13.48,2.56l31.74,159.06Zm-53.38-157.83l5.05,127.76c4.79,3.59,9.69,7.05,14.68,10.38l-5.48-138.56c-3.68.3-7.39.46-11.14.46-1.04,0-2.08-.02-3.11-.04Zm43.94-423.14l24.7-207.57-15.19-1.81-26.08,219.13c5.23-3.28,10.55-6.42,15.97-9.41.2-.11.39-.23.59-.34Zm44.84-20.4c2.66-.98,5.35-1.91,8.05-2.82.35-.12.69-.25,1.05-.37l47.25-167.51-15.28-4.31-50.37,178.59c.33-.13.66-.25.98-.38,2.45-.97,4.91-1.92,7.38-2.84.32-.12.63-.24.95-.36Zm70.5-17.27l57.51-125.8-14.97-6.84-62.08,135.79c.3-.06.6-.11.89-.16.81-.15,1.61-.3,2.42-.45,5.37-.97,10.77-1.83,16.23-2.54Zm57.19-2.4c1.23.05,2.45.11,3.67.18,1.96.11,3.92.22,5.88.37l56.49-86.21-14.26-9.34-62.07,94.72c2.93.04,5.85.11,8.76.23.51.02,1.02.04,1.53.06Zm124.85-38.86l-13.14-11.75-52.42,58.63c4.89,1.13,9.74,2.37,14.55,3.72,1.54.43,3.07.87,4.6,1.32l46.42-51.92Zm12.05,75.51c2.89,1.5,5.75,3.05,8.59,4.64l30.42-25.22-11.63-14.02-36.32,30.11c.62.3,1.23.63,1.85.93,2.21,1.08,4.4,2.18,6.58,3.31.17.09.34.17.51.26Zm69.67,48.68l11.78-7.1-9.71-16.1-17.11,10.31c4.75,3.84,9.39,7.81,13.92,11.91.37.33.75.65,1.11.98Zm-16.74,499.72l17.76,10.7,11.82-19.61-11.28-6.8c-5.9,5.45-12.01,10.69-18.3,15.71Zm-64.5,40.16l37.27,30.9,14.99-18.08-29.65-24.58c-7.36,4.2-14.91,8.12-22.61,11.75Zm-69.66,23.68l53.64,59.99,17.94-16.04-45.41-50.79c-8.58,2.63-17.31,4.91-26.17,6.84Zm-70.29,7.57c-.06,0-.12,0-.19,0l63.4,96.75,20.62-13.51-55.36-84.48c-9.39.81-18.88,1.24-28.48,1.24Zm-67.42-6.94l63.39,138.66,22.95-10.49-56.4-123.37c-10.13-1.15-20.12-2.75-29.95-4.8Zm-60.82-19.05l51.43,182.34,24.85-7.01-46.34-164.32c-10.2-3.2-20.19-6.87-29.94-11.01Zm-52.3-28.08l26.62,223.69,26.22-3.12-24.24-203.72c-9.84-5.14-19.38-10.77-28.6-16.85Zm-145.18-320.36L25.88,340.77l-3.09,9.54,348.69,113.1c.91-3.23,1.93-6.42,3.07-9.55Zm-5.56,20.01L6.97,416.27l-1.48,9.33,362.01,57.59c.39-3.14.89-6.25,1.5-9.32Zm630.98,10.51v31h-364.25c.57-5.05.88-10.18.88-15.38s-.31-10.5-.9-15.62h0c-.84-7.27-2.24-14.37-4.19-21.24-1.89-6.69-4.3-13.17-7.15-19.39-2.84-6.19-6.13-12.12-9.83-17.76-3.71-5.66-7.84-11.02-12.34-16.04-4.51-5.04-9.39-9.74-14.6-14.05h0c-5.19-4.3-10.72-8.21-16.52-11.7-5.74-3.45-11.76-6.49-18.02-9.07-6.16-2.55-12.56-4.65-19.14-6.27-6.52-1.6-13.22-2.73-20.08-3.35-4.05-.37-8.15-.56-12.29-.56-2.96,0-5.89.11-8.81.29-7.31.47-14.46,1.51-21.41,3.1-6.75,1.54-13.3,3.59-19.62,6.1-6.25,2.48-12.27,5.42-18.02,8.77-5.76,3.35-11.25,7.12-16.43,11.26h0c-5.2,4.16-10.08,8.69-14.61,13.56h0c-4.52,4.86-8.7,10.06-12.47,15.55h0c-3.74,5.45-7.1,11.18-10.03,17.16-1.71,3.49-3.26,7.06-4.67,10.71h0c.37-2.51.77-5,1.19-7.49,0,0,0,0,0,0,0,0,0,0,0,0L50.94,279.79l4.78-9.48,322.98,162.78s0,.04-.01.07c.75-3.63,1.58-7.24,2.45-10.83-.03.09-.07.17-.09.27L88.93,215.13l6.48-9.13,288.64,205.01s0,.01,0,.02c1.07-3.8,2.21-7.58,3.41-11.32l-251.66-242.46,8.18-8.48,247.69,238.63c1.53-4.19,3.15-8.35,4.84-12.46L190.68,106.96l9.82-7.52,201.67,262.56c2.18-4.71,4.47-9.36,6.87-13.95L252.76,65.18l11.34-6.26,152.34,275.75c3.13-5.37,6.42-10.65,9.84-15.82L321.16,32.83l12.71-4.67,101.87,277.18c4.56-6.18,9.32-12.2,14.28-18.05L394.88,10.95l13.85-2.76,53.07,265.98c6.66-7.03,13.62-13.79,20.88-20.21L472.65.58,487.35,0l9.57,242.03c-4.78,3.77-9.45,7.68-14.01,11.71,0,0,0,0,0,0,0,0,0,0,0,0l10.67,89.65,4.03-101.93c8.46-6.64,17.26-12.88,26.36-18.68l-4.53,114.49,25.27-126.66c9.54-5.14,19.37-9.82,29.46-14.02l-27.35,137.07,53.95-146.81c10.28-3.26,20.78-6.04,31.47-8.29l-58.36,158.8,90.56-163.92c10.58-1.15,21.3-1.79,32.15-1.91l-96.8,175.23,133.37-173.64c10.63,1.06,21.11,2.63,31.41,4.68l-140.48,182.9,179.24-172.69c9.94,3.28,19.67,7.03,29.16,11.21l-186.15,179.35,224.43-159.4c8.79,5.35,17.31,11.11,25.54,17.24l-230.55,163.75,265.41-133.76c7.24,7.16,14.15,14.66,20.7,22.47l-270.82,136.49,289.96-94.05,9.23,28.46-289.79,93.99,300.89-47.87,4.79,30.09-304.22,48.4h308.05Zm-608.26-88.58l-2.15-2.41c-.06.16-.11.32-.17.49l2.32,1.92Zm14.59-18.04l-6.66-10.17c-.27.61-.53,1.21-.8,1.82,0,0,0,0,0,.01,0,0,0,0,0-.01l7.46,8.35Zm17.63-15.86l-10.25-22.43s.03-.06.05-.08c-.02.03-.03.06-.05.08-.69,1.22-1.36,2.45-2.03,3.68,0,0,0,0,0,0,0,0,0,0,0,0l12.29,18.75Zm20.77-12.26l-11.51-40.83c-1.46,2.04-2.91,4.1-4.32,6.18l15.84,34.64Zm23.59-6.69l-8-67.21c-2.84,3.04-5.62,6.13-8.34,9.27l16.34,57.94Zm9.96,398.86l12.75-107.15c-4.97-.38-9.87-1.04-14.67-1.95l-11.44,96.12c-5.73-5.89-11.24-11.99-16.52-18.3l22.28-79.01c-5.02-1.17-9.93-2.63-14.71-4.35l-19.32,68.5c-3.6-4.84-7.08-9.79-10.42-14.83,0,0,0,0,0,0l25.3-55.34c-4.94-1.97-9.74-4.22-14.38-6.74l-20.98,45.88c-2.21-3.8-4.34-7.64-6.4-11.54l23.82-36.35c-4.74-2.77-9.3-5.81-13.65-9.12l-18.58,28.35c-1.3-2.86-2.57-5.74-3.79-8.64l19.57-21.89c-4.42-3.54-8.61-7.35-12.55-11.41l-13.9,15.54c-.72-2.04-1.43-4.09-2.12-6.16l13.95-11.57c-3.97-4.28-7.67-8.8-11.06-13.56l-8.35,6.92c-.36-1.35-.72-2.7-1.06-4.05l8.04-4.84c-3.39-4.95-6.47-10.13-9.19-15.53l-3,1.81c-.15-.78-.3-1.56-.44-2.34l2.64-1.09c-1.67-3.43-3.2-6.94-4.59-10.52h0c-1.47-3.79-2.77-7.67-3.89-11.62h0c-1.91-6.71-3.3-13.64-4.16-20.73-.64-5.34-.98-10.78-.98-16.3s.35-11.12,1.01-16.54H0v32.84h296.56L3.69,562.89l5.07,31.86,289.7-46.09L19.44,639.16l9.77,30.13,279.27-90.58L46.33,710.83l13.99,27.76,264.32-133.22-241.3,171.38,17.66,24.87,244.17-173.42-215.66,207.78,20.76,21.55,218.47-210.49-184.78,240.58,23.26,17.87,187.3-243.85-148.68,269.13,25.16,13.9,150.12-271.73s0,0,0,0c.06.1.13.2.19.31,0,0,0,0-.01-.01l-107.02,291.19,26.43,9.72,100.23-272.73c1.16,1.49,2.33,2.97,3.52,4.44,0,0,0,0,0,0,0,0,0,0,0,0l-56.2,281.66,27.04,5.4,52.16-261.39c3.03,3.04,6.11,6.03,9.26,8.95l-10.22,258.49,26.97,1.07,9.4-237.65c-8.55-6.44-16.77-13.31-24.64-20.54Z"/></svg>